<svg width="64" height="64" viewBox="0 0 64 64" fill="none" xmlns="http://www.w3.org/2000/svg">
<g clip-path="url(#clip0_3816_4502)">
<path d="M14.784 13.016H20.016L34.656 47H27.744L24.576 39.224H9.84L6.768 47H0L14.784 13.016ZM22.464 34.04L17.232 20.216L11.904 34.04H22.464Z" fill="#0FBC77"/>
<path d="M38.4326 13.016H51.6806C52.9606 13.016 54.2246 13.176 55.4726 13.496C56.7206 13.784 57.8246 14.28 58.7846 14.984C59.7766 15.656 60.5766 16.536 61.1846 17.624C61.7926 18.712 62.0966 20.024 62.0966 21.56C62.0966 23.48 61.5526 25.064 60.4646 26.312C59.3766 27.56 57.9526 28.456 56.1926 29V29.096C57.2486 29.224 58.2246 29.528 59.1206 30.008C60.0486 30.456 60.8326 31.048 61.4726 31.784C62.1126 32.488 62.6086 33.32 62.9606 34.28C63.3446 35.208 63.5366 36.216 63.5366 37.304C63.5366 39.16 63.1686 40.712 62.4326 41.96C61.6966 43.176 60.7206 44.168 59.5046 44.936C58.3206 45.672 56.9446 46.2 55.3766 46.52C53.8406 46.84 52.2726 47 50.6726 47H38.4326V13.016ZM44.4806 26.84H50.0006C52.0166 26.84 53.5206 26.456 54.5126 25.688C55.5366 24.888 56.0486 23.848 56.0486 22.568C56.0486 21.096 55.5206 20.008 54.4646 19.304C53.4406 18.568 51.7766 18.2 49.4726 18.2H44.4806V26.84ZM44.4806 41.816H50.0486C50.8166 41.816 51.6326 41.768 52.4966 41.672C53.3926 41.576 54.2086 41.352 54.9446 41C55.6806 40.648 56.2886 40.152 56.7686 39.512C57.2486 38.84 57.4886 37.944 57.4886 36.824C57.4886 35.032 56.8966 33.784 55.7126 33.08C54.5606 32.376 52.7526 32.024 50.2886 32.024H44.4806V41.816Z" fill="#244B30"/>
</g>
<defs>
<clipPath id="clip0_3816_4502">
<rect width="64" height="64" fill="white"/>
</clipPath>
</defs>
</svg>
